<?xml version="1.0" encoding="us-ascii" standalone="no"?><svg xmlns="http://www.w3.org/2000/svg" xmlns:xlink="http://www.w3.org/1999/xlink" contentStyleType="text/css" height="1237px" preserveAspectRatio="none" style="width:2218px;height:1237px;background:#FFFFFF;" version="1.1" viewBox="0 0 2218 1237" width="2218px" zoomAndPan="magnify"><defs/><g><!--cluster Client--><g id="cluster_Client"><polygon fill="none" points="16,785,26,775,283,775,283,936,273,946,16,946,16,785" style="stroke:#181818;stroke-width:1.0;"/><line style="stroke:#181818;stroke-width:1.0;" x1="273" x2="283" y1="785" y2="775"/><line style="stroke:#181818;stroke-width:1.0;" x1="16" x2="273" y1="785" y2="785"/><line style="stroke:#181818;stroke-width:1.0;" x1="273" x2="273" y1="785" y2="946"/><text fill="#000000" font-family="sans-serif" font-size="14" font-style="italic" lengthAdjust="spacing" textLength="64" x="113.5" y="800.9951">&#171;device&#187;</text><text fill="#000000" font-family="sans-serif" font-size="14" font-weight="bold" lengthAdjust="spacing" textLength="45" x="123" y="817.292">Client</text></g><!--cluster Region--><g id="cluster_Region"><path d="M500.5,123 L555.5,123 A3.75,3.75 0 0 1 558,125.5 L565,145.2969 L2208.5,145.2969 A2.5,2.5 0 0 1 2211,147.7969 L2211,1186.5 A2.5,2.5 0 0 1 2208.5,1189 L500.5,1189 A2.5,2.5 0 0 1 498,1186.5 L498,125.5 A2.5,2.5 0 0 1 500.5,123 " fill="none" style="stroke:#000000;stroke-width:1.5;"/><line style="stroke:#000000;stroke-width:1.5;" x1="498" x2="565" y1="145.2969" y2="145.2969"/><text fill="#000000" font-family="sans-serif" font-size="14" font-weight="bold" lengthAdjust="spacing" textLength="54" x="502" y="137.9951">Region</text></g><!--cluster Zone--><g id="cluster_Zone"><path d="M524.5,166 L566.5,166 A3.75,3.75 0 0 1 569,168.5 L576,188.2969 L2184.5,188.2969 A2.5,2.5 0 0 1 2187,190.7969 L2187,1162.5 A2.5,2.5 0 0 1 2184.5,1165 L524.5,1165 A2.5,2.5 0 0 1 522,1162.5 L522,168.5 A2.5,2.5 0 0 1 524.5,166 " fill="none" style="stroke:#000000;stroke-width:1.5;"/><line style="stroke:#000000;stroke-width:1.5;" x1="522" x2="576" y1="188.2969" y2="188.2969"/><text fill="#000000" font-family="sans-serif" font-size="14" font-weight="bold" lengthAdjust="spacing" textLength="41" x="526" y="180.9951">Zone</text></g><!--cluster Server--><g id="cluster_Server"><polygon fill="none" points="554,658,564,648,873,648,873,936,863,946,554,946,554,658" style="stroke:#181818;stroke-width:1.0;"/><line style="stroke:#181818;stroke-width:1.0;" x1="863" x2="873" y1="658" y2="648"/><line style="stroke:#181818;stroke-width:1.0;" x1="554" x2="863" y1="658" y2="658"/><line style="stroke:#181818;stroke-width:1.0;" x1="863" x2="863" y1="658" y2="946"/><text fill="#000000" font-family="sans-serif" font-size="14" font-style="italic" lengthAdjust="spacing" textLength="64" x="677.5" y="673.9951">&#171;device&#187;</text><text fill="#000000" font-family="sans-serif" font-size="14" font-weight="bold" lengthAdjust="spacing" textLength="159" x="630" y="690.292">Management Server</text></g><!--cluster Java--><g id="cluster_Java"><polygon fill="none" points="586,730,596,720,841,720,841,896,831,906,586,906,586,730" style="stroke:#181818;stroke-width:1.0;"/><line style="stroke:#181818;stroke-width:1.0;" x1="831" x2="841" y1="730" y2="720"/><line style="stroke:#181818;stroke-width:1.0;" x1="586" x2="831" y1="730" y2="730"/><line style="stroke:#181818;stroke-width:1.0;" x1="831" x2="831" y1="730" y2="906"/><text fill="#000000" font-family="sans-serif" font-size="14" font-style="italic" lengthAdjust="spacing" textLength="179" x="620" y="745.9951">&#171;execution environment&#187;</text><text fill="#000000" font-family="sans-serif" font-size="14" font-weight="bold" lengthAdjust="spacing" textLength="31" x="694" y="762.292">Java</text></g><!--cluster DB--><g id="cluster_DB"><polygon fill="none" points="1235.5,625,1245.5,615,1554.5,615,1554.5,936,1544.5,946,1235.5,946,1235.5,625" style="stroke:#181818;stroke-width:1.0;"/><line style="stroke:#181818;stroke-width:1.0;" x1="1544.5" x2="1554.5" y1="625" y2="615"/><line style="stroke:#181818;stroke-width:1.0;" x1="1235.5" x2="1544.5" y1="625" y2="625"/><line style="stroke:#181818;stroke-width:1.0;" x1="1544.5" x2="1544.5" y1="625" y2="946"/><text fill="#000000" font-family="sans-serif" font-size="14" font-style="italic" lengthAdjust="spacing" textLength="64" x="1359" y="640.9951">&#171;device&#187;</text><text fill="#000000" font-family="sans-serif" font-size="14" font-weight="bold" lengthAdjust="spacing" textLength="131" x="1325.5" y="657.292">Database Server</text></g><!--cluster MySQL / MariaDB--><g id="cluster_MySQL / MariaDB"><polygon fill="none" points="1267.5,697,1277.5,687,1522.5,687,1522.5,896,1512.5,906,1267.5,906,1267.5,697" style="stroke:#181818;stroke-width:1.0;"/><line style="stroke:#181818;stroke-width:1.0;" x1="1512.5" x2="1522.5" y1="697" y2="687"/><line style="stroke:#181818;stroke-width:1.0;" x1="1267.5" x2="1512.5" y1="697" y2="697"/><line style="stroke:#181818;stroke-width:1.0;" x1="1512.5" x2="1512.5" y1="697" y2="906"/><text fill="#000000" font-family="sans-serif" font-size="14" font-style="italic" lengthAdjust="spacing" textLength="179" x="1301.5" y="712.9951">&#171;execution environment&#187;</text><text fill="#000000" font-family="sans-serif" font-size="14" font-weight="bold" lengthAdjust="spacing" textLength="131" x="1325.5" y="729.292">MySQL / MariaDB</text></g><!--cluster secstorage--><g id="cluster_secstorage"><polygon fill="none" points="1281,996,1291,986,1508,986,1508,1123,1498,1133,1281,1133,1281,996" style="stroke:#181818;stroke-width:1.0;"/><line style="stroke:#181818;stroke-width:1.0;" x1="1498" x2="1508" y1="996" y2="986"/><line style="stroke:#181818;stroke-width:1.0;" x1="1281" x2="1498" y1="996" y2="996"/><line style="stroke:#181818;stroke-width:1.0;" x1="1498" x2="1498" y1="996" y2="1133"/><text fill="#000000" font-family="sans-serif" font-size="14" font-style="italic" lengthAdjust="spacing" textLength="64" x="1358.5" y="1011.9951">&#171;device&#187;</text><text fill="#000000" font-family="sans-serif" font-size="14" font-weight="bold" lengthAdjust="spacing" textLength="151" x="1315" y="1028.292">Secondary Storage</text></g><!--cluster Pod--><g id="cluster_Pod"><path d="M1181.5,209 L1212.5,209 A3.75,3.75 0 0 1 1215,211.5 L1222,231.2969 L2160.5,231.2969 A2.5,2.5 0 0 1 2163,233.7969 L2163,580.5 A2.5,2.5 0 0 1 2160.5,583 L1181.5,583 A2.5,2.5 0 0 1 1179,580.5 L1179,211.5 A2.5,2.5 0 0 1 1181.5,209 " fill="none" style="stroke:#000000;stroke-width:1.5;"/><line style="stroke:#000000;stroke-width:1.5;" x1="1179" x2="1222" y1="231.2969" y2="231.2969"/><text fill="#000000" font-family="sans-serif" font-size="14" font-weight="bold" lengthAdjust="spacing" textLength="30" x="1183" y="223.9951">Pod</text></g><!--cluster Cluster--><g id="cluster_Cluster"><path d="M1205.5,252 L1263.5,252 A3.75,3.75 0 0 1 1266,254.5 L1273,274.2969 L2136.5,274.2969 A2.5,2.5 0 0 1 2139,276.7969 L2139,556.5 A2.5,2.5 0 0 1 2136.5,559 L1205.5,559 A2.5,2.5 0 0 1 1203,556.5 L1203,254.5 A2.5,2.5 0 0 1 1205.5,252 " fill="none" style="stroke:#000000;stroke-width:1.5;"/><line style="stroke:#000000;stroke-width:1.5;" x1="1203" x2="1273" y1="274.2969" y2="274.2969"/><text fill="#000000" font-family="sans-serif" font-size="14" font-weight="bold" lengthAdjust="spacing" textLength="57" x="1207" y="266.9951">Cluster</text></g><!--cluster Host--><g id="cluster_Host"><polygon fill="none" points="1235,313,1245,303,1554,303,1554,517,1544,527,1235,527,1235,313" style="stroke:#181818;stroke-width:1.0;"/><line style="stroke:#181818;stroke-width:1.0;" x1="1544" x2="1554" y1="313" y2="303"/><line style="stroke:#181818;stroke-width:1.0;" x1="1235" x2="1544" y1="313" y2="313"/><line style="stroke:#181818;stroke-width:1.0;" x1="1544" x2="1544" y1="313" y2="527"/><text fill="#000000" font-family="sans-serif" font-size="14" font-style="italic" lengthAdjust="spacing" textLength="64" x="1358.5" y="328.9951">&#171;device&#187;</text><text fill="#000000" font-family="sans-serif" font-size="14" font-weight="bold" lengthAdjust="spacing" textLength="36" x="1372.5" y="345.292">Host</text></g><!--cluster Hypervisor--><g id="cluster_Hypervisor"><polygon fill="none" points="1267,385,1277,375,1522,375,1522,477,1512,487,1267,487,1267,385" style="stroke:#181818;stroke-width:1.0;"/><line style="stroke:#181818;stroke-width:1.0;" x1="1512" x2="1522" y1="385" y2="375"/><line style="stroke:#181818;stroke-width:1.0;" x1="1267" x2="1512" y1="385" y2="385"/><line style="stroke:#181818;stroke-width:1.0;" x1="1512" x2="1512" y1="385" y2="487"/><text fill="#000000" font-family="sans-serif" font-size="14" font-style="italic" lengthAdjust="spacing" textLength="179" x="1301" y="400.9951">&#171;execution environment&#187;</text><text fill="#000000" font-family="sans-serif" font-size="14" font-weight="bold" lengthAdjust="spacing" textLength="86" x="1347.5" y="417.292">Hypervisor</text></g><!--cluster pristorage--><g id="cluster_pristorage"><polygon fill="none" points="1904,346,1914,336,2107,336,2107,473,2097,483,1904,483,1904,346" style="stroke:#181818;stroke-width:1.0;"/><line style="stroke:#181818;stroke-width:1.0;" x1="2097" x2="2107" y1="346" y2="336"/><line style="stroke:#181818;stroke-width:1.0;" x1="1904" x2="2097" y1="346" y2="346"/><line style="stroke:#181818;stroke-width:1.0;" x1="2097" x2="2097" y1="346" y2="483"/><text fill="#000000" font-family="sans-serif" font-size="14" font-style="italic" lengthAdjust="spacing" textLength="64" x="1969.5" y="361.9951">&#171;device&#187;</text><text fill="#000000" font-family="sans-serif" font-size="14" font-weight="bold" lengthAdjust="spacing" textLength="127" x="1938" y="378.292">Primary Storage</text></g><!--entity browser--><g id="elem_browser"><polygon fill="#F1F1F1" points="40,849.5,50,839.5,259,839.5,259,892.0938,249,902.0938,40,902.0938,40,849.5" style="stroke:#181818;stroke-width:0.5;"/><line style="stroke:#181818;stroke-width:0.5;" x1="249" x2="259" y1="849.5" y2="839.5"/><line style="stroke:#181818;stroke-width:0.5;" x1="40" x2="249" y1="849.5" y2="849.5"/><line style="stroke:#181818;stroke-width:0.5;" x1="249" x2="249" y1="849.5" y2="902.0938"/><text fill="#000000" font-family="sans-serif" font-size="14" font-style="italic" lengthAdjust="spacing" textLength="179" x="55" y="872.4951">&#171;execution environment&#187;</text><text fill="#000000" font-family="sans-serif" font-size="14" lengthAdjust="spacing" textLength="91" x="99" y="888.792">Browser / API</text></g><!--entity cloudmanag--><g id="elem_cloudmanag"><rect fill="#F1F1F1" height="39.2969" rx="2.5" ry="2.5" style="stroke:#181818;stroke-width:0.5;" width="213" x="607" y="776.5"/><polygon fill="#F1F1F1" points="803,781.5,803,795.5,815,795.5,815,787.5,809,781.5,803,781.5" style="stroke:#181818;stroke-width:0.5;"/><line style="stroke:#181818;stroke-width:0.5;" x1="809" x2="809" y1="781.5" y2="787.5"/><line style="stroke:#181818;stroke-width:0.5;" x1="815" x2="809" y1="787.5" y2="787.5"/><text fill="#000000" font-family="sans-serif" font-size="14" lengthAdjust="spacing" textLength="183" x="617" y="802.4951">cloud-management-server</text></g><!--entity cloudclient--><g id="elem_cloudclient"><rect fill="#F1F1F1" height="39.2969" rx="2.5" ry="2.5" style="stroke:#181818;stroke-width:0.5;" width="127" x="650" y="850.5"/><polygon fill="#F1F1F1" points="760,855.5,760,869.5,772,869.5,772,861.5,766,855.5,760,855.5" style="stroke:#181818;stroke-width:0.5;"/><line style="stroke:#181818;stroke-width:0.5;" x1="766" x2="766" y1="855.5" y2="861.5"/><line style="stroke:#181818;stroke-width:0.5;" x1="772" x2="766" y1="861.5" y2="861.5"/><text fill="#000000" font-family="sans-serif" font-size="14" lengthAdjust="spacing" textLength="97" x="660" y="876.4951">cloud-client-ui</text></g><!--entity cloud--><g id="elem_cloud"><rect fill="#F1F1F1" height="55.5938" rx="2.5" ry="2.5" style="stroke:#181818;stroke-width:0.5;" width="111" x="1339" y="743"/><polygon fill="#F1F1F1" points="1433,748,1433,762,1445,762,1445,754,1439,748,1433,748" style="stroke:#181818;stroke-width:0.5;"/><line style="stroke:#181818;stroke-width:0.5;" x1="1439" x2="1439" y1="748" y2="754"/><line style="stroke:#181818;stroke-width:0.5;" x1="1445" x2="1439" y1="754" y2="754"/><text fill="#000000" font-family="sans-serif" font-size="14" font-style="italic" lengthAdjust="spacing" textLength="81" x="1349" y="768.9951">&#171;database&#187;</text><text fill="#000000" font-family="sans-serif" font-size="14" lengthAdjust="spacing" textLength="38" x="1370.5" y="785.292">cloud</text></g><!--entity cloud_usage--><g id="elem_cloud_usage"><rect fill="#F1F1F1" height="55.5938" rx="2.5" ry="2.5" style="stroke:#181818;stroke-width:0.5;" width="118" x="1335.5" y="834"/><polygon fill="#F1F1F1" points="1436.5,839,1436.5,853,1448.5,853,1448.5,845,1442.5,839,1436.5,839" style="stroke:#181818;stroke-width:0.5;"/><line style="stroke:#181818;stroke-width:0.5;" x1="1442.5" x2="1442.5" y1="839" y2="845"/><line style="stroke:#181818;stroke-width:0.5;" x1="1448.5" x2="1442.5" y1="845" y2="845"/><text fill="#000000" font-family="sans-serif" font-size="14" font-style="italic" lengthAdjust="spacing" textLength="81" x="1349" y="859.9951">&#171;database&#187;</text><text fill="#000000" font-family="sans-serif" font-size="14" lengthAdjust="spacing" textLength="88" x="1345.5" y="876.292">cloud_usage</text></g><!--entity Templates--><g id="elem_Templates"><rect fill="#F1F1F1" height="39.2969" rx="2.5" ry="2.5" style="stroke:#181818;stroke-width:0.5;" width="103" x="1343" y="1050.5"/><polygon fill="#F1F1F1" points="1429,1055.5,1429,1069.5,1441,1069.5,1441,1061.5,1435,1055.5,1429,1055.5" style="stroke:#181818;stroke-width:0.5;"/><line style="stroke:#181818;stroke-width:0.5;" x1="1435" x2="1435" y1="1055.5" y2="1061.5"/><line style="stroke:#181818;stroke-width:0.5;" x1="1441" x2="1435" y1="1061.5" y2="1061.5"/><text fill="#000000" font-family="sans-serif" font-size="14" lengthAdjust="spacing" textLength="73" x="1353" y="1076.4951">Templates</text></g><!--entity cloud_agent--><g id="elem_cloud_agent"><rect fill="#F1F1F1" height="39.2969" rx="2.5" ry="2.5" style="stroke:#181818;stroke-width:0.5;" width="115" x="1337" y="431.5"/><polygon fill="#F1F1F1" points="1435,436.5,1435,450.5,1447,450.5,1447,442.5,1441,436.5,1435,436.5" style="stroke:#181818;stroke-width:0.5;"/><line style="stroke:#181818;stroke-width:0.5;" x1="1441" x2="1441" y1="436.5" y2="442.5"/><line style="stroke:#181818;stroke-width:0.5;" x1="1447" x2="1441" y1="442.5" y2="442.5"/><text fill="#000000" font-family="sans-serif" font-size="14" lengthAdjust="spacing" textLength="85" x="1347" y="457.4951">cloud_agent</text></g><!--entity Virtual disks--><g id="elem_Virtual disks"><rect fill="#F1F1F1" height="39.2969" rx="2.5" ry="2.5" style="stroke:#181818;stroke-width:0.5;" width="112" x="1949" y="400.5"/><polygon fill="#F1F1F1" points="2044,405.5,2044,419.5,2056,419.5,2056,411.5,2050,405.5,2044,405.5" style="stroke:#181818;stroke-width:0.5;"/><line style="stroke:#181818;stroke-width:0.5;" x1="2050" x2="2050" y1="405.5" y2="411.5"/><line style="stroke:#181818;stroke-width:0.5;" x1="2056" x2="2050" y1="411.5" y2="411.5"/><text fill="#000000" font-family="sans-serif" font-size="14" lengthAdjust="spacing" textLength="82" x="1959" y="426.4951">Virtual disks</text></g><g id="elem_GMN28"><path d="M1240.5,6 L1240.5,46.2656 L1548.5,46.2656 L1548.5,16 L1538.5,6 L1240.5,6 " fill="#FEFFDD" style="stroke:#181818;stroke-width:0.5;"/><path d="M1538.5,6 L1538.5,16 L1548.5,16 L1538.5,6 " fill="#FEFFDD" style="stroke:#181818;stroke-width:1.0;"/><text fill="#000000" font-family="sans-serif" font-size="13" lengthAdjust="spacing" textLength="287" x="1246.5" y="23.0669">Servicio para dar instrucciones a la m&#225;quina,</text><text fill="#000000" font-family="sans-serif" font-size="13" lengthAdjust="spacing" textLength="285" x="1246.5" y="38.1997">a excepci&#243;n de VMWare que usa vCenter API</text></g><g id="elem_GMN31"><path d="M1186,81.5 L1186,106.6328 L1603,106.6328 L1603,91.5 L1593,81.5 L1186,81.5 " fill="#FEFFDD" style="stroke:#181818;stroke-width:0.5;"/><path d="M1593,81.5 L1593,91.5 L1603,91.5 L1593,81.5 " fill="#FEFFDD" style="stroke:#181818;stroke-width:1.0;"/><text fill="#000000" font-family="sans-serif" font-size="13" lengthAdjust="spacing" textLength="396" x="1192" y="98.5669">Almacenamiento de "alto rendimiento" para VMs en ejecuci&#243;n</text></g><g id="elem_GMN34"><path d="M515,1205.5 L515,1230.6328 L912,1230.6328 L912,1215.5 L902,1205.5 L515,1205.5 " fill="#FEFFDD" style="stroke:#181818;stroke-width:0.5;"/><path d="M902,1205.5 L902,1215.5 L912,1215.5 L902,1205.5 " fill="#FEFFDD" style="stroke:#181818;stroke-width:1.0;"/><text fill="#000000" font-family="sans-serif" font-size="13" lengthAdjust="spacing" textLength="376" x="521" y="1222.5669">Almacenamiento de "gran capacidad" para datos est&#225;ticos</text></g><!--link Client to Server--><g id="link_Client_Server"><path d="M285.7974,938 C286.7368,938 287.6793,938 288.6247,938 C290.5154,938 292.4179,938 294.3317,938 C298.1592,938 302.0317,938 305.9452,938 C313.772,938 321.7624,938 329.8837,938 C362.3688,938 396.9478,938 431.5262,938 C466.1047,938 500.6826,938 533.1655,938 C537.2259,938 541.2535,938 545.2443,938 C547.2397,938 549.2259,938 551.2024,938 C551.6966,938 552.1901,938 552.683,938 " fill="none" id="Client-Server" style="stroke:#181818;stroke-width:1.0;"/><text fill="#000000" font-family="sans-serif" font-size="13" lengthAdjust="spacing" textLength="171" x="308" y="934.0669">HTTPS Request (443/8080)</text><text fill="#000000" font-family="sans-serif" font-size="13" lengthAdjust="spacing" textLength="7" x="143.6" y="950.0669">*</text></g><!--link Server to DB--><g id="link_Server_DB"><path d="M874.5718,938 C892.6147,938 911.6064,938 931.2305,938 C970.4787,938 1012.2566,938 1054.0338,938 C1095.8109,938 1137.5874,938 1176.8328,938 C1196.4555,938 1215.4454,938 1233.4862,938 C1234.05,938 1234.6128,938 1235.1748,938 " fill="none" id="Server-DB" style="stroke:#181818;stroke-width:1.0;"/><text fill="#000000" font-family="sans-serif" font-size="13" lengthAdjust="spacing" textLength="70" x="988" y="934.0669">TCP (3306)</text></g><!--link Server to secstorage--><g id="link_Server_secstorage"><path d="M731.1647,946.0068 C731.7027,946.2615 732.2529,946.5216 732.8151,946.7871 C735.0638,947.8492 737.5047,948.997 740.1294,950.2249 C745.3788,952.6806 751.3635,955.4563 758.0167,958.5055 C784.6297,970.7022 821.9394,987.2744 865.6737,1005.2437 C953.1425,1041.1825 1066.31,1082.71 1171,1106 C1194.8425,1111.305 1220.425,1115.1494 1245.4472,1117.9308 C1251.7027,1118.6261 1257.9233,1119.255 1264.0728,1119.8237 C1267.1476,1120.1081 1270.2047,1120.3774 1273.2395,1120.6324 C1274.7569,1120.7599 1276.2687,1120.8838 1277.7744,1121.0043 C1278.5273,1121.0645 1279.2786,1121.1239 1280.0284,1121.1824 " fill="none" id="Server-secstorage" style="stroke:#181818;stroke-width:1.0;"/><text fill="#000000" font-family="sans-serif" font-size="13" lengthAdjust="spacing" textLength="26" x="1010" y="1041.0669">NFS</text></g><!--link Server to Host--><g id="link_Server_Host"><path d="M873.5983,919.6994 C873.938,919.603 874.2776,919.5061 874.6169,919.4087 C875.2955,919.2139 875.9734,919.0171 876.6504,918.8183 C878.0045,918.4207 879.3553,918.015 880.7022,917.601 C891.4772,914.2894 902.0038,910.45 912,906 C974.215,878.305 1093.2025,782.845 1197.3225,693.6713 C1249.3825,649.0844 1297.7256,606.0691 1333.3969,573.8817 C1351.2325,557.788 1365.9002,544.4014 1376.2805,534.8787 C1378.8755,532.4981 1381.2027,530.3589 1383.2443,528.4793 C1383.7548,528.0094 1384.2473,527.5558 1384.7218,527.1186 " fill="none" id="Server-Host" style="stroke:#181818;stroke-width:1.0;"/><text fill="#000000" font-family="sans-serif" font-size="13" lengthAdjust="spacing" textLength="110" x="968" y="794.0669">TCP / SSH (8250)</text><text fill="#000000" font-family="sans-serif" font-size="13" lengthAdjust="spacing" textLength="7" x="1386.44" y="531.1269">*</text></g><!--link Host to pristorage--><g id="link_Host_pristorage"><path d="M1554.3514,507.5121 C1555.3935,507.4367 1556.4385,507.3612 1557.4865,507.2854 C1559.5824,507.1338 1561.6899,506.9814 1563.8085,506.8282 C1572.2829,506.2155 1580.9345,505.5899 1589.7277,504.954 C1624.9006,502.4107 1662.3406,499.7034 1699.78,496.9963 C1737.2194,494.2891 1774.6581,491.582 1809.8286,489.0389 C1827.4138,487.7674 1844.4319,486.5369 1860.5995,485.3679 C1868.6833,484.7835 1876.5545,484.2144 1884.1775,483.6632 C1887.9891,483.3876 1891.7386,483.1165 1895.4217,482.8502 C1897.2632,482.7171 1899.0882,482.5851 1900.8959,482.4544 C1901.7998,482.3891 1902.6994,482.324 1903.5946,482.2593 " fill="none" id="Host-pristorage" style="stroke:#181818;stroke-width:1.0;"/><text fill="#000000" font-family="sans-serif" font-size="13" lengthAdjust="spacing" textLength="71" x="1712" y="488.0669">iSCSI / NFS</text><text fill="#000000" font-family="sans-serif" font-size="13" lengthAdjust="spacing" textLength="7" x="1395.61" y="531.0569">*</text><text fill="#000000" font-family="sans-serif" font-size="13" lengthAdjust="spacing" textLength="7" x="1996.89" y="487.0769">*</text></g><!--link cloud_agent to GMN28--><g id="link_cloud_agent_GMN28"><path d="M1348.84,431.5 C1228.82,377.65 921.72,221.58 1041.5,81.5 C1089.38,25.51 1168.79,9.52 1240.19,8.47 " fill="none" id="cloud_agent-GMN28" style="stroke:#181818;stroke-width:1.0;stroke-dasharray:7.0,7.0;"/></g><!--link GMN31 to pristorage--><g id="link_GMN31_pristorage"><path d="M1407.76,106.63 C1459.95,159.51 1670.84,364.67 1888,456 C1890.9625,457.2463 1893.9995,458.4111 1897.0907,459.4997 C1898.6363,460.0441 1900.1954,460.5693 1901.7655,461.0763 C1902.1581,461.203 1902.5513,461.3286 1902.9451,461.453 C1903.1421,461.5153 1903.3392,461.5772 1903.5364,461.6388 " fill="none" id="GMN31-pristorage" style="stroke:#181818;stroke-width:1.0;stroke-dasharray:7.0,7.0;"/></g><!--link GMN34 to secstorage--><g id="link_GMN34_secstorage"><path d="M806.07,1205.46 C898.015,1192.865 1043.305,1172.965 1166.3838,1156.1075 C1227.9231,1147.6788 1283.9097,1140.0106 1324.8989,1134.3966 C1327.4607,1134.0457 1329.964,1133.7028 1332.4063,1133.3683 C1333.0169,1133.2847 1333.6237,1133.2016 1334.2266,1133.119 " fill="none" id="GMN34-secstorage" style="stroke:#181818;stroke-width:1.0;stroke-dasharray:7.0,7.0;"/></g><!--SRC=[fLNTJjim5BxFKnpbfcnQ1HhRX2geHDjDCAse8nMJTZETEgOO4hlOJWUR-Z0ymnwXBxRZE3Hfqb9DoqrTdx_lV3u_BVXeh88RP1pkCmuyWLZWL6EAO3YT9zaj_N0Gl-upmNMCWFHNStP3fyogTFba1SEKIyk3X5zR87TQJ6yi6PEQ5Ke6GGjEgX_qLJfJqjcOTSb981L52_k986a8nySndml6krtu7G1zNjpJwgVX6lRXT7JkjFW3PvcB1LpEXLRI0I8ZD30fTBsz-_B38bW4mGpP7Kx9uIMVad5OAAsklnF8i6BPWZxvrSenmfGx9UvufemrAoKFSOYIN3WO474zvtej6SBbRolEIzlFECUNibgtSHzgAwwHMGXPehAudQwYjqqHdKBciboqqm7B7w2TYTBGNwrPBeBcYJZop62ij6CdeOgPG8sU0LgS89NOPd86lOt431-Zhr_erOUe1Gvw_yLH7h90qUtkqlwH6IBq1PlDL9mcARMMnDHHfu0Rc_UBgjCHSIgd6FKZH5RfvqWLGWndnajgcPKunpoT9KWj5LQWh8whcXwfEApvMCdwIMQiUuqcUoqOBfze1aW4ejbcc3HKV2gk6UhetLtJPSNcSKPb88pI__QasnwBag7fiL5z4Uo-QRnRBEJoAQLtsvBpI8lqXSURQR7vyPhuhpot5D7ScN07rdhDvJDjVTR29K-G4PUDINiI-24BuUiGsksY4JjmDXwF8ZAZTM0ixBrxTxX_T71qy2ee1XQf3deT6FT7i7TuUF2XAYYhj0CNdwAAn0LnLU0Dzo6Apc3lwErxykkkdq6udvAj3eYe7vsJkdD6gLKJkr0MQpdHyh0S9ihINW9r3PLYy0tdy0XYWofUqrH23K8QgpDMC8HkMAL5dR_9JH3u0-Cp9fP_f9jcLyDlgFsof940SxSGA4NQGm6NCJW4WSUHRqD2KUQJEwoN5fKF9cvfahdmbw77TpKqr070RwaTylZR8fIqRuj06rq2Gsfq4MCSFkTlbIbdaYdT_mK0]--></g></svg>