<?xml version="1.0" encoding="us-ascii" standalone="no"?><svg xmlns="http://www.w3.org/2000/svg" xmlns:xlink="http://www.w3.org/1999/xlink" contentStyleType="text/css" height="1692px" preserveAspectRatio="none" style="width:1775px;height:1692px;background:#FFFFFF;" version="1.1" viewBox="0 0 1775 1692" width="1775px" zoomAndPan="magnify"><defs/><g><!--cluster presentation--><g id="cluster_presentation"><rect fill="none" height="233" rx="2.5" ry="2.5" style="stroke:#181818;stroke-width:1.0;" width="428" x="782" y="210"/><text fill="#000000" font-family="sans-serif" font-size="14" font-weight="bold" lengthAdjust="spacing" textLength="171" x="910.5" y="254.9951">capa de presentaci&#243;n</text></g><!--cluster apiLayer--><g id="cluster_apiLayer"><rect fill="none" height="233" rx="2.5" ry="2.5" style="stroke:#181818;stroke-width:1.0;" width="396" x="790" y="516"/><text fill="#000000" font-family="sans-serif" font-size="14" font-weight="bold" lengthAdjust="spacing" textLength="67" x="954.5" y="560.9951">capa API</text></g><!--cluster businessLayer--><g id="cluster_businessLayer"><rect fill="none" height="233" rx="2.5" ry="2.5" style="stroke:#181818;stroke-width:1.0;" width="1184" x="12" y="822"/><text fill="#000000" font-family="sans-serif" font-size="14" font-weight="bold" lengthAdjust="spacing" textLength="181" x="513.5" y="866.9951">capa l&#243;gica de negocio</text></g><!--cluster integration--><g id="cluster_integration"><rect fill="none" height="233" rx="2.5" ry="2.5" style="stroke:#181818;stroke-width:1.0;" width="382" x="1190" y="1128"/><text fill="#000000" font-family="sans-serif" font-size="14" font-weight="bold" lengthAdjust="spacing" textLength="156" x="1303" y="1172.9951">capa de integraci&#243;n</text></g><!--cluster data--><g id="cluster_data"><rect fill="none" height="233" rx="2.5" ry="2.5" style="stroke:#181818;stroke-width:1.0;" width="776" x="993" y="1434"/><text fill="#000000" font-family="sans-serif" font-size="14" font-weight="bold" lengthAdjust="spacing" textLength="111" x="1325.5" y="1478.9951">capa de datos</text></g><!--entity UI--><g id="elem_UI"><rect fill="#F1F1F1" height="106.2969" rx="2.5" ry="2.5" style="stroke:#181818;stroke-width:0.5;" width="196" x="990" y="313"/><rect fill="#F1F1F1" height="10" style="stroke:#181818;stroke-width:0.5;" width="15" x="1166" y="318"/><rect fill="#F1F1F1" height="2" style="stroke:#181818;stroke-width:0.5;" width="4" x="1164" y="320"/><rect fill="#F1F1F1" height="2" style="stroke:#181818;stroke-width:0.5;" width="4" x="1164" y="324"/><text fill="#000000" font-family="sans-serif" font-size="14" lengthAdjust="spacing" textLength="96" x="1035" y="375.9951">User interface</text></g><!--entity api--><g id="elem_api"><rect fill="#F1F1F1" height="106.2969" rx="2.5" ry="2.5" style="stroke:#181818;stroke-width:0.5;" width="163" x="998.5" y="619"/><rect fill="#F1F1F1" height="10" style="stroke:#181818;stroke-width:0.5;" width="15" x="1141.5" y="624"/><rect fill="#F1F1F1" height="2" style="stroke:#181818;stroke-width:0.5;" width="4" x="1139.5" y="626"/><rect fill="#F1F1F1" height="2" style="stroke:#181818;stroke-width:0.5;" width="4" x="1139.5" y="630"/><text fill="#000000" font-family="sans-serif" font-size="14" lengthAdjust="spacing" textLength="63" x="1043.5" y="681.9951">cloud-api</text></g><!--entity server--><g id="elem_server"><rect fill="#F1F1F1" height="106.2969" rx="2.5" ry="2.5" style="stroke:#181818;stroke-width:0.5;" width="186" x="594" y="925"/><rect fill="#F1F1F1" height="10" style="stroke:#181818;stroke-width:0.5;" width="15" x="760" y="930"/><rect fill="#F1F1F1" height="2" style="stroke:#181818;stroke-width:0.5;" width="4" x="758" y="932"/><rect fill="#F1F1F1" height="2" style="stroke:#181818;stroke-width:0.5;" width="4" x="758" y="936"/><text fill="#000000" font-family="sans-serif" font-size="14" lengthAdjust="spacing" textLength="86" x="639" y="987.9951">cloud-server</text></g><!--entity engine--><g id="elem_engine"><rect fill="#F1F1F1" height="106.2969" rx="2.5" ry="2.5" style="stroke:#181818;stroke-width:0.5;" width="191" x="980.5" y="925"/><rect fill="#F1F1F1" height="10" style="stroke:#181818;stroke-width:0.5;" width="15" x="1151.5" y="930"/><rect fill="#F1F1F1" height="2" style="stroke:#181818;stroke-width:0.5;" width="4" x="1149.5" y="932"/><rect fill="#F1F1F1" height="2" style="stroke:#181818;stroke-width:0.5;" width="4" x="1149.5" y="936"/><text fill="#000000" font-family="sans-serif" font-size="14" lengthAdjust="spacing" textLength="91" x="1025.5" y="987.9951">cloud-engine</text></g><!--entity core--><g id="elem_core"><rect fill="#F1F1F1" height="106.2969" rx="2.5" ry="2.5" style="stroke:#181818;stroke-width:0.5;" width="174" x="220" y="925"/><rect fill="#F1F1F1" height="10" style="stroke:#181818;stroke-width:0.5;" width="15" x="374" y="930"/><rect fill="#F1F1F1" height="2" style="stroke:#181818;stroke-width:0.5;" width="4" x="372" y="932"/><rect fill="#F1F1F1" height="2" style="stroke:#181818;stroke-width:0.5;" width="4" x="372" y="936"/><text fill="#000000" font-family="sans-serif" font-size="14" lengthAdjust="spacing" textLength="74" x="265" y="987.9951">cloud-core</text></g><!--entity Plugins--><g id="elem_Plugins"><rect fill="#F1F1F1" height="106.2969" rx="2.5" ry="2.5" style="stroke:#181818;stroke-width:0.5;" width="150" x="1398" y="1231"/><rect fill="#F1F1F1" height="10" style="stroke:#181818;stroke-width:0.5;" width="15" x="1528" y="1236"/><rect fill="#F1F1F1" height="2" style="stroke:#181818;stroke-width:0.5;" width="4" x="1526" y="1238"/><rect fill="#F1F1F1" height="2" style="stroke:#181818;stroke-width:0.5;" width="4" x="1526" y="1242"/><text fill="#000000" font-family="sans-serif" font-size="14" lengthAdjust="spacing" textLength="50" x="1443" y="1293.9951">Plugins</text></g><!--entity framework--><g id="elem_framework"><rect fill="#F1F1F1" height="106.2969" rx="2.5" ry="2.5" style="stroke:#181818;stroke-width:0.5;" width="172" x="1201" y="1537"/><rect fill="#F1F1F1" height="10" style="stroke:#181818;stroke-width:0.5;" width="15" x="1353" y="1542"/><rect fill="#F1F1F1" height="2" style="stroke:#181818;stroke-width:0.5;" width="4" x="1351" y="1544"/><rect fill="#F1F1F1" height="2" style="stroke:#181818;stroke-width:0.5;" width="4" x="1351" y="1548"/><text fill="#000000" font-family="sans-serif" font-size="14" lengthAdjust="spacing" textLength="72" x="1246" y="1599.9951">framework</text></g><!--entity utils--><g id="elem_utils"><rect fill="#F1F1F1" height="106.2969" rx="2.5" ry="2.5" style="stroke:#181818;stroke-width:0.5;" width="171" x="1573.5" y="1537"/><rect fill="#F1F1F1" height="10" style="stroke:#181818;stroke-width:0.5;" width="15" x="1724.5" y="1542"/><rect fill="#F1F1F1" height="2" style="stroke:#181818;stroke-width:0.5;" width="4" x="1722.5" y="1544"/><rect fill="#F1F1F1" height="2" style="stroke:#181818;stroke-width:0.5;" width="4" x="1722.5" y="1548"/><text fill="#000000" font-family="sans-serif" font-size="14" lengthAdjust="spacing" textLength="71" x="1618.5" y="1599.9951">cloud-utils</text></g><!--entity User--><g id="elem_User"><rect fill="#F1F1F1" height="106.2969" rx="2.5" ry="2.5" style="stroke:#181818;stroke-width:0.5;" width="132" x="873" y="7"/><rect fill="#F1F1F1" height="10" style="stroke:#181818;stroke-width:0.5;" width="15" x="985" y="12"/><rect fill="#F1F1F1" height="2" style="stroke:#181818;stroke-width:0.5;" width="4" x="983" y="14"/><rect fill="#F1F1F1" height="2" style="stroke:#181818;stroke-width:0.5;" width="4" x="983" y="18"/><text fill="#000000" font-family="sans-serif" font-size="14" lengthAdjust="spacing" textLength="32" x="918" y="69.9951">User</text></g><!--link User to presentation--><!--link presentation to apiLayer--><!--link apiLayer to businessLayer--><!--link businessLayer to integration--><!--link integration to data--><!--link User to UI--><g id="link_User_UI"><path d="M997.5,113.3 C997.5,113.3 997.5,307.8 997.5,307.8 " fill="none" id="User-to-UI" style="stroke:#181818;stroke-width:1.0;stroke-dasharray:7.0,7.0;"/><polygon fill="#181818" points="997.5,312.8,1001.5,303.8,997.5,307.8,993.5,303.8,997.5,312.8" style="stroke:#181818;stroke-width:1.0;"/><text fill="#000000" font-family="sans-serif" font-size="13" lengthAdjust="spacing" textLength="39" x="927.5" y="176.6169">&#171;use&#187;</text></g><!--link UI to api--><g id="link_UI_api"><path d="M1080,419.3 C1080,419.3 1080,613.8 1080,613.8 " fill="none" id="UI-to-api" style="stroke:#181818;stroke-width:1.0;stroke-dasharray:7.0,7.0;"/><polygon fill="#181818" points="1080,618.8,1084,609.8,1080,613.8,1076,609.8,1080,618.8" style="stroke:#181818;stroke-width:1.0;"/><text fill="#000000" font-family="sans-serif" font-size="13" lengthAdjust="spacing" textLength="58" x="991" y="482.6169">&#171;import&#187;</text></g><!--link api to utils--><g id="link_api_utils"><path d="M1161.61,646 C1327.29,646 1687.5,646 1687.5,646 C1687.5,646 1687.5,1531.88 1687.5,1531.88 " fill="none" id="api-to-utils" style="stroke:#181818;stroke-width:1.0;stroke-dasharray:7.0,7.0;"/><polygon fill="#181818" points="1687.5,1536.88,1691.5,1527.88,1687.5,1531.88,1683.5,1527.88,1687.5,1536.88" style="stroke:#181818;stroke-width:1.0;"/><text fill="#000000" font-family="sans-serif" font-size="13" lengthAdjust="spacing" textLength="58" x="1598.5" y="792.0669">&#171;import&#187;</text></g><!--link api to framework--><g id="link_api_framework"><path d="M1161.6,699 C1208.56,699 1258.33,699 1258.33,699 C1258.33,699 1258.33,1531.93 1258.33,1531.93 " fill="none" id="api-to-framework" style="stroke:#181818;stroke-width:1.0;stroke-dasharray:7.0,7.0;"/><polygon fill="#181818" points="1258.33,1536.93,1262.33,1527.93,1258.33,1531.93,1254.33,1527.93,1258.33,1536.93" style="stroke:#181818;stroke-width:1.0;"/><text fill="#000000" font-family="sans-serif" font-size="13" lengthAdjust="spacing" textLength="58" x="1169.33" y="1110.1669">&#171;import&#187;</text></g><!--reverse link api to server--><g id="link_api_server"><path d="M993.09,708 C993.09,708 687,708 687,708 C687,708 687,846.35 687,924.98 " fill="none" id="api-backto-server" style="stroke:#181818;stroke-width:1.0;stroke-dasharray:7.0,7.0;"/><polygon fill="#181818" points="998.09,708,989.09,704,993.09,708,989.09,712,998.09,708" style="stroke:#181818;stroke-width:1.0;"/><text fill="#000000" font-family="sans-serif" font-size="13" lengthAdjust="spacing" textLength="58" x="642.56" y="674.0669">&#171;import&#187;</text></g><!--reverse link core to server--><g id="link_core_server"><path d="M399.18,978 C399.18,978 593.92,978 593.92,978 " fill="none" id="core-backto-server" style="stroke:#181818;stroke-width:1.0;stroke-dasharray:7.0,7.0;"/><polygon fill="#181818" points="394.18,978,403.18,982,399.18,978,403.18,974,394.18,978" style="stroke:#181818;stroke-width:1.0;"/><text fill="#000000" font-family="sans-serif" font-size="13" lengthAdjust="spacing" textLength="58" x="497.55" y="1021.0669">&#171;import&#187;</text></g><!--link server to engine--><g id="link_server_engine"><path d="M780.18,978 C780.18,978 975.2,978 975.2,978 " fill="none" id="server-to-engine" style="stroke:#181818;stroke-width:1.0;stroke-dasharray:7.0,7.0;"/><polygon fill="#181818" points="980.2,978,971.2,974,975.2,978,971.2,982,980.2,978" style="stroke:#181818;stroke-width:1.0;"/><text fill="#000000" font-family="sans-serif" font-size="13" lengthAdjust="spacing" textLength="58" x="878.69" y="1021.0669">&#171;import&#187;</text></g><!--link server to Plugins--><g id="link_server_Plugins"><path d="M733.5,1036.16 C733.5,1036.16 733.5,1266 733.5,1266 C733.5,1266 1392.68,1266 1392.68,1266 " fill="none" id="server-Plugins" style="stroke:#181818;stroke-width:1.0;stroke-dasharray:7.0,7.0;"/><polygon fill="#181818" points="733.5,1031.16,729.5,1040.16,733.5,1036.16,737.5,1040.16,733.5,1031.16" style="stroke:#181818;stroke-width:1.0;"/><polygon fill="#181818" points="1397.68,1266,1388.68,1262,1392.68,1266,1388.68,1270,1397.68,1266" style="stroke:#181818;stroke-width:1.0;"/><text fill="#000000" font-family="sans-serif" font-size="13" lengthAdjust="spacing" textLength="58" x="859.17" y="1232.0669">&#171;import&#187;</text></g><!--link server to framework--><g id="link_server_framework"><path d="M687,1031.25 C687,1174.09 687,1555 687,1555 C687,1555 1195.72,1555 1195.72,1555 " fill="none" id="server-to-framework" style="stroke:#181818;stroke-width:1.0;stroke-dasharray:7.0,7.0;"/><polygon fill="#181818" points="1200.72,1555,1191.72,1551,1195.72,1555,1191.72,1559,1200.72,1555" style="stroke:#181818;stroke-width:1.0;"/><text fill="#000000" font-family="sans-serif" font-size="13" lengthAdjust="spacing" textLength="58" x="598" y="1513.5469">&#171;import&#187;</text></g><!--link server to utils--><g id="link_server_utils"><path d="M640.5,1031.08 C640.5,1075.27 640.5,1131 640.5,1131 C640.5,1131 1630.5,1131 1630.5,1131 C1630.5,1131 1630.5,1531.9 1630.5,1531.9 " fill="none" id="server-to-utils" style="stroke:#181818;stroke-width:1.0;stroke-dasharray:7.0,7.0;"/><polygon fill="#181818" points="1630.5,1536.9,1634.5,1527.9,1630.5,1531.9,1626.5,1527.9,1630.5,1536.9" style="stroke:#181818;stroke-width:1.0;"/><text fill="#000000" font-family="sans-serif" font-size="13" lengthAdjust="spacing" textLength="58" x="1316.99" y="1097.0669">&#171;import&#187;</text></g><!--reverse link api to core--><g id="link_api_core"><path d="M993.31,691 C993.31,691 278,691 278,691 C278,691 278,841.69 278,924.69 " fill="none" id="api-backto-core" style="stroke:#181818;stroke-width:1.0;stroke-dasharray:7.0,7.0;"/><polygon fill="#181818" points="998.31,691,989.31,687,993.31,691,989.31,695,998.31,691" style="stroke:#181818;stroke-width:1.0;"/><text fill="#000000" font-family="sans-serif" font-size="13" lengthAdjust="spacing" textLength="58" x="429.81" y="657.0669">&#171;import&#187;</text></g><!--link core to engine--><g id="link_core_engine"><path d="M336,924.92 C336,880.73 336,825 336,825 C336,825 985.25,825 985.25,825 C985.25,825 985.25,919.92 985.25,919.92 " fill="none" id="core-to-engine" style="stroke:#181818;stroke-width:1.0;stroke-dasharray:7.0,7.0;"/><polygon fill="#181818" points="985.25,924.92,989.25,915.92,985.25,919.92,981.25,915.92,985.25,924.92" style="stroke:#181818;stroke-width:1.0;"/><text fill="#000000" font-family="sans-serif" font-size="13" lengthAdjust="spacing" textLength="58" x="569.12" y="791.0669">&#171;import&#187;</text></g><!--link core to framework--><g id="link_core_framework"><path d="M307,1031.24 C307,1177.03 307,1572 307,1572 C307,1572 1195.89,1572 1195.89,1572 " fill="none" id="core-to-framework" style="stroke:#181818;stroke-width:1.0;stroke-dasharray:7.0,7.0;"/><polygon fill="#181818" points="1200.89,1572,1191.89,1568,1195.89,1572,1191.89,1576,1200.89,1572" style="stroke:#181818;stroke-width:1.0;"/><text fill="#000000" font-family="sans-serif" font-size="13" lengthAdjust="spacing" textLength="58" x="392.06" y="1538.0669">&#171;import&#187;</text></g><!--reverse link framework to utils--><g id="link_framework_utils"><path d="M1378.28,1608 C1378.28,1608 1573.19,1608 1573.19,1608 " fill="none" id="framework-backto-utils" style="stroke:#181818;stroke-width:1.0;stroke-dasharray:7.0,7.0;"/><polygon fill="#181818" points="1373.28,1608,1382.28,1612,1378.28,1608,1382.28,1604,1373.28,1608" style="stroke:#181818;stroke-width:1.0;"/><text fill="#000000" font-family="sans-serif" font-size="13" lengthAdjust="spacing" textLength="58" x="1476.73" y="1651.0669">&#171;import&#187;</text></g><!--reverse link api to Plugins--><g id="link_api_Plugins"><path d="M1166.91,672 C1166.91,672 1473,672 1473,672 C1473,672 1473,1081.86 1473,1230.76 " fill="none" id="api-backto-Plugins" style="stroke:#181818;stroke-width:1.0;stroke-dasharray:7.0,7.0;"/><polygon fill="#181818" points="1161.91,672,1170.91,676,1166.91,672,1170.91,668,1161.91,672" style="stroke:#181818;stroke-width:1.0;"/><text fill="#000000" font-family="sans-serif" font-size="13" lengthAdjust="spacing" textLength="58" x="1384" y="764.3969">&#171;import&#187;</text></g><!--link Plugins to utils--><g id="link_Plugins_utils"><path d="M1473,1337.01 C1473,1420.44 1473,1573 1473,1573 C1473,1573 1568.35,1573 1568.35,1573 " fill="none" id="Plugins-to-utils" style="stroke:#181818;stroke-width:1.0;stroke-dasharray:7.0,7.0;"/><polygon fill="#181818" points="1573.35,1573,1564.35,1569,1568.35,1573,1564.35,1577,1573.35,1573" style="stroke:#181818;stroke-width:1.0;"/><text fill="#000000" font-family="sans-serif" font-size="13" lengthAdjust="spacing" textLength="58" x="1504" y="1468.7469">&#171;import&#187;</text></g><!--link Plugins to framework--><g id="link_Plugins_framework"><path d="M1397.56,1311 C1357.18,1311 1315.67,1311 1315.67,1311 C1315.67,1311 1315.67,1531.87 1315.67,1531.87 " fill="none" id="Plugins-to-framework" style="stroke:#181818;stroke-width:1.0;stroke-dasharray:7.0,7.0;"/><polygon fill="#181818" points="1315.67,1536.87,1319.67,1527.87,1315.67,1531.87,1311.67,1527.87,1315.67,1536.87" style="stroke:#181818;stroke-width:1.0;"/><text fill="#000000" font-family="sans-serif" font-size="13" lengthAdjust="spacing" textLength="58" x="1226.67" y="1346.5569">&#171;import&#187;</text></g><!--reverse link engine to Plugins--><g id="link_engine_Plugins"><path d="M1086.75,1036.22 C1086.75,1036.22 1086.75,1249 1086.75,1249 C1086.75,1249 1285.2,1249 1397.61,1249 " fill="none" id="engine-backto-Plugins" style="stroke:#181818;stroke-width:1.0;stroke-dasharray:7.0,7.0;"/><polygon fill="#181818" points="1086.75,1031.22,1082.75,1040.22,1086.75,1036.22,1090.75,1040.22,1086.75,1031.22" style="stroke:#181818;stroke-width:1.0;"/><text fill="#000000" font-family="sans-serif" font-size="13" lengthAdjust="spacing" textLength="58" x="1046.79" y="1215.0669">&#171;import&#187;</text></g><!--SRC=[XLH1Rjim4Bpp5LjTSb8GjBV2CM0aI64WI0m7kQJeWP5ecR144YJLm2ZwYZubJ_37kYGbXQ9bHmU9tXdkxWoNle16MgdXgM6M2aeku8lIj6eer7GlMmkc0uYL2go4LscjRA3acXMMIq7CZWj5DMr0qM97A_PazpK31rDHrOnWJiCSeq0wCn3j4B9aYC7NgwieggdO7KSLBKikAlWM1sikcDqh1bBRhNIbheS7RcIZiAAmMFGZV4sAFWxPis4wSzjozy1AOpl2OgU7Tn5YEUbaGLPGHQ5ae69M1jGC4MV87mAGL02EFUWDBPXdFo-1_FqekbWjkr8v9CKGyZkeulTqZucIv4Kjsp97j6V5UUyFxnKlVCU2LHBTXob1zH7D9tjj3Nfhp9cwgEmtskVOOJb5OgB2F9uKbZ35AgGE7BSOkRD4wohzoOdmYEJJT05t7cdlgxh5DamM5xcbLXeuaRnqeC-AAvgcs-0OiZUfTzcKhjRoEkprAwmPJIWyhdyi7fOlYvlbuTy3t3skNnQtYsXKYH-U_EUMboKJlqhv9lBvQDX8_EE8sOyD6UOdPOnEcOpFFEL6dfBOtvJdN1hTH5Ypkh_yJ83pDRwGI6rHPn1xwP9Spl6EV8VP3EFpkSlLSeAtfWTHZaCvcgrj8608dCo1u_qUiM9qEBKqJnXa_8yAtyjMJTJhmPfjBC9kPYTnpQkj8uJ1dwBC-eQwgPnCSxRdX7Gi6qMv1ec_MTDw0dIcsq3upBimuluzU7EIh89WqWa_qTc0dfINCgOBZgiSA_mF]--></g></svg>